<!DOCTYPE svg PUBLIC "-//W3C//DTD SVG 1.1//EN" "http://www.w3.org/Graphics/SVG/1.1/DTD/svg11.dtd">
<!-- Uploaded to: SVG Repo, www.svgrepo.com, Transformed by: SVG Repo Mixer Tools -->
<svg version="1.1" id="Layer_1" xmlns="http://www.w3.org/2000/svg" xmlns:xlink="http://www.w3.org/1999/xlink" viewBox="0 0 512 512" xml:space="preserve" width="256px" height="256px" fill="#000000">
<g id="SVGRepo_bgCarrier" stroke-width="0"/>
<g id="SVGRepo_tracerCarrier" stroke-linecap="round" stroke-linejoin="round"/>
<g id="SVGRepo_iconCarrier"> <circle style="fill:#414881;" cx="256" cy="255.996" r="255.996"/> <path style="fill:#050505;" d="M511.965,259.041L330.991,78.066c-18.758-20.138-45.465-32.785-74.987-32.785 c-56.407,0-102.558,46.151-102.558,102.557v3.793l72.999,69.878h-23.495c-32.14,0-49.503,27.084-49.503,51.64v21.487V450 l58.153,58.153c14.424,2.522,29.26,3.847,44.405,3.847C396.372,512,510.333,399.022,511.965,259.041z"/> <path style="fill:#FFFFFF;" d="M256.003,45.282L256.003,45.282c-56.407,0-102.558,46.151-102.558,102.558v3.793h38.301 c1.177-36.215,29.486-65.197,64.257-65.197c35.519,0,64.313,30.237,64.313,67.537c0,37.299-28.794,67.537-64.313,67.537h-53.054 c-32.14,0-49.503,27.084-49.503,51.64v21.487V450h205.116v-302.16C358.562,91.432,312.41,45.282,256.003,45.282z"/> <path style="fill:#E1E1E3;" d="M358.562,147.839c0-56.407-46.151-102.557-102.558-102.557l0,0c-0.001,0-0.002,0-0.003,0v41.154 c0.001,0,0.002,0,0.003,0c35.519,0,64.313,30.238,64.313,67.537s-28.794,67.537-64.313,67.537H256V450h102.562V147.839z"/> <rect x="198.678" y="359.858" style="fill:#00CDB3;" width="114.655" height="16.023"/> <rect x="256" y="359.858" style="fill:#3b8c81;" width="57.331" height="16.023"/> <rect x="198.678" y="392.354" style="fill:#00CDB3;" width="114.655" height="16.023"/> <rect x="256" y="392.354" style="fill:#3b8c81;" width="57.331" height="16.023"/> <circle style="fill:#000000;" cx="256" cy="301.626" r="41.442"/> <path style="fill:#050505;" d="M256.003,343.063c22.888,0,41.442-18.554,41.442-41.442c0-22.888-18.554-41.442-41.442-41.442 c-0.001,0-0.002,0-0.003,0v82.884C256.001,343.063,256.002,343.063,256.003,343.063z"/> </g>
</svg>